<?xml version="1.0" encoding="utf-8"?>
<!-- Generator: Adobe Illustrator 25.4.1, SVG Export Plug-In . SVG Version: 6.00 Build 0)  -->
<svg version="1.1" id="Layer_1" xmlns="http://www.w3.org/2000/svg" xmlns:xlink="http://www.w3.org/1999/xlink" x="0px" y="0px"
	 viewBox="0 0 24 24" style="enable-background:new 0 0 24 24;" xml:space="preserve">
<path d="M9,0.4c0.3,0.4,0.3,0.9,0.1,1.3C8.3,3.3,7.8,5.1,7.8,6.9c0,6,4.9,10.9,11,10.9c0.8,0,1.6-0.1,2.3-0.2
	c0.5-0.1,0.9,0.1,1.2,0.5c0.3,0.4,0.3,1,0,1.3c-2.4,2.9-6,4.6-9.7,4.6C5.6,24,0,18.4,0,11.6C0,6.4,3.2,2,7.7,0.1
	C8.1-0.1,8.7,0,9,0.4z"/>
</svg>
