<?xml version="1.0" encoding="utf-8"?>
<!-- Generator: Adobe Illustrator 25.4.1, SVG Export Plug-In . SVG Version: 6.00 Build 0)  -->
<svg version="1.1" id="Layer_1" xmlns="http://www.w3.org/2000/svg" xmlns:xlink="http://www.w3.org/1999/xlink" x="0px" y="0px" width="16px" height="16px"
	 viewBox="0 0 24 24" style="enable-background:new 0 0 24 24;" xml:space="preserve">
<path d="M12,16.5c-2.5,0-4.5-2-4.5-4.5s2-4.5,4.5-4.5s4.5,2,4.5,4.5S14.5,16.5,12,16.5z M12,18c3.3,0,6-2.7,6-6s-2.7-6-6-6
	s-6,2.7-6,6S8.7,18,12,18z M12,0c0.4,0,0.8,0.3,0.8,0.8v3c0,0.4-0.3,0.8-0.8,0.8c-0.4,0-0.8-0.3-0.8-0.8v-3C11.2,0.3,11.6,0,12,0z
	 M12,19.5c0.4,0,0.8,0.3,0.8,0.8v3c0,0.4-0.3,0.8-0.8,0.8c-0.4,0-0.8-0.3-0.8-0.8v-3C11.2,19.8,11.6,19.5,12,19.5z M24,12
	c0,0.4-0.3,0.8-0.8,0.8h-3c-0.4,0-0.8-0.3-0.8-0.8c0-0.4,0.3-0.8,0.8-0.8h3C23.7,11.2,24,11.6,24,12z M4.5,12c0,0.4-0.3,0.8-0.8,0.8
	h-3C0.3,12.8,0,12.4,0,12c0-0.4,0.3-0.8,0.8-0.8h3C4.2,11.2,4.5,11.6,4.5,12z M20.5,3.5c0.3,0.3,0.3,0.8,0,1.1l-2.1,2.1
	c-0.3,0.3-0.8,0.3-1.1,0c-0.3-0.3-0.3-0.8,0-1.1l2.1-2.1C19.7,3.2,20.2,3.2,20.5,3.5z M6.7,17.3c0.3,0.3,0.3,0.8,0,1.1l-2.1,2.1
	c-0.3,0.3-0.8,0.3-1.1,0c-0.3-0.3-0.3-0.8,0-1l2.1-2.1C5.9,17,6.4,17,6.7,17.3z M20.5,20.5c-0.3,0.3-0.8,0.3-1.1,0l-2.1-2.1
	c-0.3-0.3-0.3-0.8,0-1.1c0.3-0.3,0.8-0.3,1,0l2.1,2.1C20.8,19.7,20.8,20.2,20.5,20.5z M6.7,6.7C6.4,7,5.9,7,5.6,6.7L3.5,4.6
	c-0.3-0.3-0.3-0.8,0-1.1c0.3-0.3,0.8-0.3,1.1,0c0,0,0,0,0,0l2.1,2.1C7,5.9,7,6.4,6.7,6.7C6.7,6.7,6.7,6.7,6.7,6.7z"/>
</svg>
